<svg xmlns="http://www.w3.org/2000/svg" width="24" height="21" fill="none" viewBox="0 0 24 21"><path fill="url(#paint0_linear_349_3453)" d="M17.09 13.1865L21.4416 9.44189L24 9.65266L19.1211 13.846L20.5978 20.1756L18.3825 18.8306L17.09 13.1865ZM14.6372 5.53841L13.2662 2.32107L14.2157 0L16.6418 5.72324L14.6372 5.53841ZM6.67268 16.3779L10.5496 14.0568L14.4265 16.4045L13.3979 11.9997L16.8001 9.04629L12.3168 8.65069L10.5496 4.50985L8.78234 8.6241L4.29907 9.0197L7.70124 11.9997L6.67268 16.3779ZM4.03513 20.044L5.74982 12.6326L0 7.64807L7.59554 6.98916L10.5496 0L13.5036 6.98916L21.0991 7.64807L15.3493 12.6326L17.064 20.044L10.5496 16.1139L4.03513 20.044Z"/><defs><linearGradient id="paint0_linear_349_3453" x1="2.214" x2="23.67" y1="18.613" y2="3.173" gradientUnits="userSpaceOnUse"><stop offset=".521" stop-color="#D9297D"/><stop offset="1" stop-color="#F18520"/></linearGradient></defs></svg>